<svg width="32" height="32" viewBox="0 0 24 24"><path fill="#000" d="M12.025 21q-.425 0-.713-.288q-.287-.287-.287-.712v-1.15Q9.9 18.6 9.05 17.975q-.85-.625-1.375-1.75q-.175-.35-.013-.737q.163-.388.588-.563q.35-.15.725.013q.375.162.575.537q.425.75 1.075 1.138q.65.387 1.6.387q1.025 0 1.738-.462q.712-.463.712-1.438q0-.875-.55-1.388q-.55-.512-2.55-1.162q-2.15-.675-2.95-1.612q-.8-.938-.8-2.288q0-1.625 1.05-2.525q1.05-.9 2.15-1.025V4q0-.425.287-.713Q11.6 3 12.025 3t.713.287q.287.288.287.713v1.1q.95.15 1.65.613q.7.462 1.15 1.137q.225.325.088.725q-.138.4-.563.575q-.35.15-.725.012q-.375-.137-.7-.487q-.325-.35-.762-.538q-.438-.187-1.088-.187q-1.1 0-1.675.488q-.575.487-.575 1.212q0 .825.75 1.3q.75.475 2.6 1q1.725.5 2.613 1.587q.887 1.088.887 2.513q0 1.775-1.05 2.7q-1.05.925-2.6 1.15V20q0 .425-.287.712q-.288.288-.713.288Z"/></svg>